# xmcd
# Copyright (C) 1995-1998 Ti Kan
#
# Track frame offsets:
#       150
#       15807
#       29887
#       46840
#       62612
#       79110
#       96087
#       112232
#       128100
#       152607
#       169812
#       186175
#       207192
#       226462
#       242067
#
# Disc length: 3458 seconds
#
# Revision: 5
# Processed by: cddbd v1.5PL3 Copyright (c) Steve Scherf et al.
# Submitted via: CD-Transfer v1.0
#
DISCID=c10d800f
DTITLE=Topiæ Dado - Split 1997 Cd-1
DYEAR=97
DGENRE=
TTITLE0=Blizu Oltara Bolje Se Èuje
TTITLE1=Zarobljena
TTITLE2=Ljubav Je Tu
TTITLE3=Sidin Na Zidièu
TTITLE4=Sve San Ti Da
TTITLE5=Vrati Se
TTITLE6=Splite Grade
TTITLE7=Dalmatinac
TTITLE8=Moja Mala Kraljice
TTITLE9=More Zna
TTITLE10=Moj Je Malac Kapitalac
TTITLE11=Ti I Ja Kad Zbrojimo Sve
TTITLE12=Jedini
TTITLE13=Bili Brode Moj
TTITLE14=Sad Ili Nikada
EXTD=
EXTT0=
EXTT1=
EXTT2=
EXTT3=
EXTT4=
EXTT5=
EXTT6=
EXTT7=
EXTT8=
EXTT9=
EXTT10=
EXTT11=
EXTT12=
EXTT13=
EXTT14=
PLAYORDER=
